<svg width="788" height="961" viewBox="0 0 788 961" fill="none" xmlns="http://www.w3.org/2000/svg">
<ellipse opacity="0.5" cx="511" cy="948.5" rx="277" ry="12.5" fill="#AFD2F7"/>
<rect x="187.398" y="255.736" width="329.998" height="459.945" fill="#AFD2F7"/>
<rect x="198.684" y="266.337" width="307.428" height="449.344" fill="#1C85E8"/>
<rect x="210.651" y="279.332" width="283.832" height="436.349" fill="white"/>
<path d="M265.71 455.445H212.876L217.834 712.432L494.485 716.194V428.258H477.216V489.812H458.921V441.937H434.299V463.994H410.875V380.383H373.942V441.937H343.165V489.812H317.347V402.44H265.71V455.445Z" fill="#AFD2F7"/>
<g opacity="0.5">
<mask id="mask0_639_232156" style="mask-type:alpha" maskUnits="userSpaceOnUse" x="213" y="380" width="282" height="337">
<path d="M266.051 455.444H213.217L218.175 712.432L494.826 716.194V428.258H477.557V489.812H459.262V441.937H434.64V463.993H411.215V380.383H374.283V441.937H343.506V489.812H317.688V402.439H266.051V455.444Z" fill="#ABB7F0"/>
</mask>
<g mask="url(#mask0_639_232156)">
<rect opacity="0.5" x="494.451" y="433.278" width="46.8494" height="330.236" transform="rotate(48.7369 494.451 433.278)" fill="white"/>
</g>
</g>
<rect x="349.833" y="279.332" width="5.1295" height="436.349" fill="#1C85E8"/>
<g opacity="0.2">
<rect opacity="0.8" width="12.3108" height="18.4662" transform="matrix(-1 0 0 1 390.867 389.104)" fill="white"/>
<rect opacity="0.8" width="12.3108" height="18.4662" transform="matrix(-1 0 0 1 390.867 409.621)" fill="white"/>
<rect opacity="0.8" width="12.3108" height="18.4662" transform="matrix(-1 0 0 1 390.867 430.139)" fill="white"/>
<rect opacity="0.8" width="12.3108" height="18.4662" transform="matrix(-1 0 0 1 390.867 450.658)" fill="white"/>
<rect opacity="0.8" width="12.3108" height="18.4662" transform="matrix(-1 0 0 1 390.867 471.176)" fill="white"/>
<rect opacity="0.8" width="12.3108" height="18.4662" transform="matrix(-1 0 0 1 390.867 491.693)" fill="white"/>
<rect opacity="0.8" width="12.3108" height="18.4662" transform="matrix(-1 0 0 1 390.867 512.211)" fill="white"/>
<rect opacity="0.8" width="12.3108" height="18.4662" transform="matrix(-1 0 0 1 390.867 532.729)" fill="white"/>
<rect opacity="0.8" width="12.3108" height="18.4662" transform="matrix(-1 0 0 1 390.867 553.248)" fill="white"/>
<rect opacity="0.8" width="12.3108" height="18.4662" transform="matrix(-1 0 0 1 390.867 573.766)" fill="white"/>
<rect opacity="0.8" width="12.3108" height="18.4662" transform="matrix(-1 0 0 1 390.867 594.283)" fill="white"/>
<rect opacity="0.8" width="12.3108" height="18.4662" transform="matrix(-1 0 0 1 390.867 614.801)" fill="white"/>
<rect opacity="0.8" width="12.3108" height="18.4662" transform="matrix(-1 0 0 1 390.867 635.32)" fill="white"/>
<rect opacity="0.8" width="12.3108" height="18.4662" transform="matrix(-1 0 0 1 390.867 655.838)" fill="white"/>
<rect opacity="0.8" width="12.3108" height="18.4662" transform="matrix(-1 0 0 1 390.867 676.355)" fill="white"/>
<rect opacity="0.8" width="12.3108" height="18.4662" transform="matrix(-1 0 0 1 390.867 696.873)" fill="white"/>
<rect opacity="0.8" width="12.3108" height="18.4662" transform="matrix(-1 0 0 1 406.255 389.104)" fill="white"/>
<rect opacity="0.8" width="12.3108" height="18.4662" transform="matrix(-1 0 0 1 406.255 409.621)" fill="white"/>
<rect opacity="0.8" width="12.3108" height="18.4662" transform="matrix(-1 0 0 1 406.255 430.139)" fill="white"/>
<rect opacity="0.8" width="12.3108" height="18.4662" transform="matrix(-1 0 0 1 406.255 450.658)" fill="white"/>
<rect opacity="0.8" width="12.3108" height="18.4662" transform="matrix(-1 0 0 1 406.255 471.176)" fill="white"/>
<rect opacity="0.8" width="12.3108" height="18.4662" transform="matrix(-1 0 0 1 406.255 491.693)" fill="white"/>
<rect opacity="0.8" width="12.3108" height="18.4662" transform="matrix(-1 0 0 1 406.255 512.211)" fill="white"/>
<rect opacity="0.8" width="12.3108" height="18.4662" transform="matrix(-1 0 0 1 406.255 532.729)" fill="white"/>
<rect opacity="0.8" width="12.3108" height="18.4662" transform="matrix(-1 0 0 1 406.255 553.248)" fill="white"/>
<rect opacity="0.8" width="12.3108" height="18.4662" transform="matrix(-1 0 0 1 406.255 573.766)" fill="white"/>
<rect opacity="0.8" width="12.3108" height="18.4662" transform="matrix(-1 0 0 1 406.255 594.283)" fill="white"/>
<rect opacity="0.8" width="12.3108" height="18.4662" transform="matrix(-1 0 0 1 406.255 614.801)" fill="white"/>
<rect opacity="0.8" width="12.3108" height="18.4662" transform="matrix(-1 0 0 1 406.255 635.32)" fill="white"/>
<rect opacity="0.8" width="12.3108" height="18.4662" transform="matrix(-1 0 0 1 406.255 655.838)" fill="white"/>
<rect opacity="0.8" width="12.3108" height="18.4662" transform="matrix(-1 0 0 1 406.255 676.355)" fill="white"/>
<rect opacity="0.8" width="12.3108" height="18.4662" transform="matrix(-1 0 0 1 406.255 696.873)" fill="white"/>
</g>
<g opacity="0.2">
<rect opacity="0.8" width="10.9429" height="12.5624" transform="matrix(-1 0 0 1 328.631 493.404)" fill="white"/>
<rect opacity="0.8" width="10.9429" height="12.5624" transform="matrix(-1 0 0 1 328.631 507.362)" fill="white"/>
<rect opacity="0.8" width="10.9429" height="12.5624" transform="matrix(-1 0 0 1 328.631 521.32)" fill="white"/>
<rect opacity="0.8" width="10.9429" height="12.5624" transform="matrix(-1 0 0 1 328.631 535.279)" fill="white"/>
<rect opacity="0.8" width="10.9429" height="12.5624" transform="matrix(-1 0 0 1 328.631 549.237)" fill="white"/>
<rect opacity="0.8" width="10.9429" height="12.5624" transform="matrix(-1 0 0 1 328.631 563.195)" fill="white"/>
<rect opacity="0.8" width="10.9429" height="12.5624" transform="matrix(-1 0 0 1 328.631 577.154)" fill="white"/>
<rect opacity="0.8" width="10.9429" height="12.5624" transform="matrix(-1 0 0 1 328.631 591.112)" fill="white"/>
<rect opacity="0.8" width="10.9429" height="12.5624" transform="matrix(-1 0 0 1 328.631 605.07)" fill="white"/>
<rect opacity="0.8" width="10.9429" height="12.5624" transform="matrix(-1 0 0 1 328.631 619.028)" fill="white"/>
<rect opacity="0.8" width="10.9429" height="12.5624" transform="matrix(-1 0 0 1 328.631 632.986)" fill="white"/>
<rect opacity="0.8" width="10.9429" height="12.5624" transform="matrix(-1 0 0 1 328.631 646.944)" fill="white"/>
<rect opacity="0.8" width="10.9429" height="12.5624" transform="matrix(-1 0 0 1 328.631 660.903)" fill="white"/>
<rect opacity="0.8" width="10.9429" height="12.5624" transform="matrix(-1 0 0 1 328.631 674.861)" fill="white"/>
<rect opacity="0.8" width="10.9429" height="12.5624" transform="matrix(-1 0 0 1 328.631 688.819)" fill="white"/>
<rect opacity="0.8" width="10.9429" height="12.5624" transform="matrix(-1 0 0 1 328.631 702.777)" fill="white"/>
<rect opacity="0.8" width="10.9429" height="12.5624" transform="matrix(-1 0 0 1 342.309 493.404)" fill="white"/>
<rect opacity="0.8" width="10.9429" height="12.5624" transform="matrix(-1 0 0 1 342.309 507.362)" fill="white"/>
<rect opacity="0.8" width="10.9429" height="12.5624" transform="matrix(-1 0 0 1 342.309 521.32)" fill="white"/>
<rect opacity="0.8" width="10.9429" height="12.5624" transform="matrix(-1 0 0 1 342.309 535.279)" fill="white"/>
<rect opacity="0.8" width="10.9429" height="12.5624" transform="matrix(-1 0 0 1 342.309 549.237)" fill="white"/>
<rect opacity="0.8" width="10.9429" height="12.5624" transform="matrix(-1 0 0 1 342.309 563.195)" fill="white"/>
<rect opacity="0.8" width="10.9429" height="12.5624" transform="matrix(-1 0 0 1 342.309 577.154)" fill="white"/>
<rect opacity="0.8" width="10.9429" height="12.5624" transform="matrix(-1 0 0 1 342.309 591.112)" fill="white"/>
<rect opacity="0.8" width="10.9429" height="12.5624" transform="matrix(-1 0 0 1 342.309 605.07)" fill="white"/>
<rect opacity="0.8" width="10.9429" height="12.5624" transform="matrix(-1 0 0 1 342.309 619.028)" fill="white"/>
<rect opacity="0.8" width="10.9429" height="12.5624" transform="matrix(-1 0 0 1 342.309 632.986)" fill="white"/>
<rect opacity="0.8" width="10.9429" height="12.5624" transform="matrix(-1 0 0 1 342.309 646.944)" fill="white"/>
<rect opacity="0.8" width="10.9429" height="12.5624" transform="matrix(-1 0 0 1 342.309 660.903)" fill="white"/>
<rect opacity="0.8" width="10.9429" height="12.5624" transform="matrix(-1 0 0 1 342.309 674.861)" fill="white"/>
<rect opacity="0.8" width="10.9429" height="12.5624" transform="matrix(-1 0 0 1 342.309 688.819)" fill="white"/>
<rect opacity="0.8" width="10.9429" height="12.5624" transform="matrix(-1 0 0 1 342.309 702.777)" fill="white"/>
</g>
<g opacity="0.2">
<rect opacity="0.8" width="17.1743" height="17.3048" transform="matrix(-1 0 0 1 289.38 409.621)" fill="white"/>
<rect opacity="0.8" width="17.1743" height="17.3048" transform="matrix(-1 0 0 1 289.38 428.848)" fill="white"/>
<rect opacity="0.8" width="17.1743" height="17.3048" transform="matrix(-1 0 0 1 289.38 448.075)" fill="white"/>
<rect opacity="0.8" width="17.1743" height="17.3048" transform="matrix(-1 0 0 1 289.38 467.304)" fill="white"/>
<rect opacity="0.8" width="17.1743" height="17.3048" transform="matrix(-1 0 0 1 289.38 486.531)" fill="white"/>
<rect opacity="0.8" width="17.1743" height="17.3048" transform="matrix(-1 0 0 1 289.38 505.758)" fill="white"/>
<rect opacity="0.8" width="17.1743" height="17.3048" transform="matrix(-1 0 0 1 289.38 524.986)" fill="white"/>
<rect opacity="0.8" width="17.1743" height="17.3048" transform="matrix(-1 0 0 1 289.38 544.214)" fill="white"/>
<rect opacity="0.8" width="17.1743" height="17.3048" transform="matrix(-1 0 0 1 289.38 563.441)" fill="white"/>
<rect opacity="0.8" width="17.1743" height="17.3048" transform="matrix(-1 0 0 1 289.38 582.668)" fill="white"/>
<rect opacity="0.8" width="17.1743" height="17.3048" transform="matrix(-1 0 0 1 289.38 601.896)" fill="white"/>
<rect opacity="0.8" width="17.1743" height="17.3048" transform="matrix(-1 0 0 1 289.38 621.124)" fill="white"/>
<rect opacity="0.8" width="17.1743" height="17.3048" transform="matrix(-1 0 0 1 289.38 640.351)" fill="white"/>
<rect opacity="0.8" width="17.1743" height="17.3048" transform="matrix(-1 0 0 1 289.38 659.579)" fill="white"/>
<rect opacity="0.8" width="17.1743" height="17.3048" transform="matrix(-1 0 0 1 289.38 678.806)" fill="white"/>
<rect opacity="0.8" width="17.1743" height="17.3048" transform="matrix(-1 0 0 1 289.38 698.033)" fill="white"/>
<rect opacity="0.8" width="17.1743" height="17.3048" transform="matrix(-1 0 0 1 310.849 409.621)" fill="white"/>
<rect opacity="0.8" width="17.1743" height="17.3048" transform="matrix(-1 0 0 1 310.849 428.848)" fill="white"/>
<rect opacity="0.8" width="17.1743" height="17.3048" transform="matrix(-1 0 0 1 310.849 448.075)" fill="white"/>
<rect opacity="0.8" width="17.1743" height="17.3048" transform="matrix(-1 0 0 1 310.849 467.304)" fill="white"/>
<rect opacity="0.8" width="17.1743" height="17.3048" transform="matrix(-1 0 0 1 310.849 486.531)" fill="white"/>
<rect opacity="0.8" width="17.1743" height="17.3048" transform="matrix(-1 0 0 1 310.849 505.758)" fill="white"/>
<rect opacity="0.8" width="17.1743" height="17.3048" transform="matrix(-1 0 0 1 310.849 524.986)" fill="white"/>
<rect opacity="0.8" width="17.1743" height="17.3048" transform="matrix(-1 0 0 1 310.849 544.214)" fill="white"/>
<rect opacity="0.8" width="17.1743" height="17.3048" transform="matrix(-1 0 0 1 310.849 563.441)" fill="white"/>
<rect opacity="0.8" width="17.1743" height="17.3048" transform="matrix(-1 0 0 1 310.849 582.668)" fill="white"/>
<rect opacity="0.8" width="17.1743" height="17.3048" transform="matrix(-1 0 0 1 310.849 601.896)" fill="white"/>
<rect opacity="0.8" width="17.1743" height="17.3048" transform="matrix(-1 0 0 1 310.849 621.124)" fill="white"/>
<rect opacity="0.8" width="17.1743" height="17.3048" transform="matrix(-1 0 0 1 310.849 640.351)" fill="white"/>
<rect opacity="0.8" width="17.1743" height="17.3048" transform="matrix(-1 0 0 1 310.849 659.579)" fill="white"/>
<rect opacity="0.8" width="17.1743" height="17.3048" transform="matrix(-1 0 0 1 310.849 678.806)" fill="white"/>
<rect opacity="0.8" width="17.1743" height="17.3048" transform="matrix(-1 0 0 1 310.849 698.033)" fill="white"/>
</g>
<g opacity="0.2">
<rect opacity="0.8" x="447.465" y="445.527" width="8.20719" height="12.3108" fill="#3199FF"/>
<rect opacity="0.8" x="447.465" y="459.206" width="8.20719" height="12.3108" fill="#3199FF"/>
<rect opacity="0.8" x="447.465" y="472.885" width="8.20719" height="12.3108" fill="#3199FF"/>
<rect opacity="0.8" x="447.465" y="486.563" width="8.20719" height="12.3108" fill="#3199FF"/>
<rect opacity="0.8" x="447.465" y="500.242" width="8.20719" height="12.3108" fill="#3199FF"/>
<rect opacity="0.8" x="447.465" y="513.921" width="8.20719" height="12.3108" fill="#3199FF"/>
<rect opacity="0.8" x="447.465" y="527.599" width="8.20719" height="12.3108" fill="#3199FF"/>
<rect opacity="0.8" x="447.465" y="541.278" width="8.20719" height="12.3108" fill="#3199FF"/>
<rect opacity="0.8" x="447.465" y="554.956" width="8.20719" height="12.3108" fill="#3199FF"/>
<rect opacity="0.8" x="447.465" y="568.635" width="8.20719" height="12.3108" fill="#3199FF"/>
<rect opacity="0.8" x="447.465" y="582.314" width="8.20719" height="12.3108" fill="#3199FF"/>
<rect opacity="0.8" x="447.465" y="595.993" width="8.20719" height="12.3108" fill="#3199FF"/>
<rect opacity="0.8" x="447.465" y="609.671" width="8.20719" height="12.3108" fill="#3199FF"/>
<rect opacity="0.8" x="447.465" y="623.349" width="8.20719" height="12.3108" fill="#3199FF"/>
<rect opacity="0.8" x="447.465" y="637.028" width="8.20719" height="12.3108" fill="#3199FF"/>
<rect opacity="0.8" x="447.465" y="650.707" width="8.20719" height="12.3108" fill="#3199FF"/>
<rect opacity="0.8" x="447.465" y="664.386" width="8.20719" height="12.3108" fill="#3199FF"/>
<rect opacity="0.8" x="447.465" y="678.065" width="8.20719" height="12.3108" fill="#3199FF"/>
<rect opacity="0.8" x="447.465" y="691.744" width="8.20719" height="12.3108" fill="#3199FF"/>
<rect opacity="0.8" x="447.465" y="705.421" width="8.20719" height="12.3108" fill="#3199FF"/>
<rect opacity="0.8" x="437.206" y="445.527" width="8.20719" height="12.3108" fill="#3199FF"/>
<rect opacity="0.8" x="437.206" y="459.206" width="8.20719" height="12.3108" fill="#3199FF"/>
<rect opacity="0.8" x="437.206" y="472.885" width="8.20719" height="12.3108" fill="#3199FF"/>
<rect opacity="0.8" x="437.206" y="486.563" width="8.20719" height="12.3108" fill="#3199FF"/>
<rect opacity="0.8" x="437.206" y="500.242" width="8.20719" height="12.3108" fill="#3199FF"/>
<rect opacity="0.8" x="437.206" y="513.921" width="8.20719" height="12.3108" fill="#3199FF"/>
<rect opacity="0.8" x="437.206" y="527.599" width="8.20719" height="12.3108" fill="#3199FF"/>
<rect opacity="0.8" x="437.206" y="541.278" width="8.20719" height="12.3108" fill="#3199FF"/>
<rect opacity="0.8" x="437.206" y="554.956" width="8.20719" height="12.3108" fill="#3199FF"/>
<rect opacity="0.8" x="437.206" y="568.635" width="8.20719" height="12.3108" fill="#3199FF"/>
<rect opacity="0.8" x="437.206" y="582.314" width="8.20719" height="12.3108" fill="#3199FF"/>
<rect opacity="0.8" x="437.206" y="595.993" width="8.20719" height="12.3108" fill="#3199FF"/>
<rect opacity="0.8" x="437.206" y="609.671" width="8.20719" height="12.3108" fill="#3199FF"/>
<rect opacity="0.8" x="437.206" y="623.349" width="8.20719" height="12.3108" fill="#3199FF"/>
<rect opacity="0.8" x="437.206" y="637.028" width="8.20719" height="12.3108" fill="#3199FF"/>
<rect opacity="0.8" x="437.206" y="650.707" width="8.20719" height="12.3108" fill="#3199FF"/>
<rect opacity="0.8" x="437.206" y="664.386" width="8.20719" height="12.3108" fill="#3199FF"/>
<rect opacity="0.8" x="437.206" y="678.065" width="8.20719" height="12.3108" fill="#3199FF"/>
<rect opacity="0.8" x="437.206" y="691.744" width="8.20719" height="12.3108" fill="#3199FF"/>
<rect opacity="0.8" x="437.206" y="705.421" width="8.20719" height="12.3108" fill="#3199FF"/>
</g>
<rect opacity="0.2" x="439.104" y="389.103" width="46.8494" height="315.293" transform="rotate(48.7369 439.104 389.103)" fill="white"/>
<rect x="494.485" y="417.828" width="5.12951" height="285.542" transform="rotate(90 494.485 417.828)" fill="#1C85E8"/>
<rect x="494.485" y="575.133" width="5.12951" height="285.542" transform="rotate(90 494.485 575.133)" fill="#1C85E8"/>
<mask id="path-148-inside-1_639_232156" fill="white">
<rect x="34.5391" y="712.603" width="635.716" height="37.6163" rx="8.54916"/>
</mask>
<rect x="34.5391" y="712.603" width="635.716" height="37.6163" rx="8.54916" fill="#1C85E8" stroke="#9ECCFD" stroke-width="20.518" mask="url(#path-148-inside-1_639_232156)"/>
<ellipse cx="275.269" cy="725.436" rx="9.18013" ry="18.2947" transform="rotate(89.7663 275.269 725.436)" fill="#23274B"/>
<ellipse cx="160.592" cy="725.035" rx="9.18013" ry="18.2947" transform="rotate(-90.2337 160.592 725.035)" fill="#23274B"/>
<ellipse cx="271.055" cy="725.453" rx="7.17514" ry="9.03178" transform="rotate(89.7663 271.055 725.453)" fill="#FFBB8D"/>
<ellipse cx="164.806" cy="725.018" rx="7.17514" ry="9.03178" transform="rotate(-90.2337 164.806 725.018)" fill="#FFBB8D"/>
<ellipse cx="231.146" cy="572.62" rx="19.9876" ry="14.1772" transform="rotate(1.26827 231.146 572.62)" fill="#2470C0"/>
<ellipse cx="220.933" cy="553.418" rx="10.7719" ry="10.43" fill="#2470C0"/>
<ellipse cx="212.001" cy="574.5" rx="15" ry="14.5" fill="#2470C0"/>
<ellipse cx="188.123" cy="562.045" rx="19.7552" ry="25.5655" transform="rotate(-44.6474 188.123 562.045)" fill="#2470C0"/>
<ellipse cx="17.9133" cy="23.182" rx="17.9133" ry="23.182" transform="matrix(-0.711445 -0.702742 -0.702742 0.711445 281.776 555.864)" fill="#2470C0"/>
<path d="M210.432 567.642L199.218 570.386L202.422 579.206L214.036 583.715H227.453L241.871 580.578L243.673 577.05V571.366L230.857 567.642H210.432Z" fill="#283BC7"/>
<ellipse cx="165.877" cy="535.289" rx="14.6421" ry="35.5593" transform="rotate(-14.8299 165.877 535.289)" fill="#2470C0"/>
<ellipse cx="13.2769" cy="32.244" rx="13.2769" ry="32.244" transform="matrix(-0.96669 -0.25595 -0.25595 0.96669 294.001 493.228)" fill="#2470C0"/>
<ellipse cx="168" cy="493" rx="15" ry="14" fill="#2470C0"/>
<path d="M166.109 544.202C164.729 472.254 184.233 464.089 190.5 461L254.416 446.896C273.181 451.445 259.03 525.415 256.615 569.786C217.705 545.185 193.03 565.75 174.69 576L166.109 544.202Z" fill="#2470C0"/>
<path d="M203.932 574.553C209.598 569.391 212.84 558.946 213.752 554.369L215.937 551.488L218.029 545.802L222.37 546.06L226.032 553.36C228.559 563.547 233.892 570.351 236.243 572.48C237.973 575.15 245.917 578.051 249.673 578.996L258.112 585.596L285.624 642.762L284.202 652.225L281.195 661.247L260.954 671.356L190.739 671.878L167.278 672.655L156.093 652.225L171.115 609.542L192.481 579.948C197.005 578.835 202 575.888 203.932 574.553Z" fill="#94C5F9"/>
<path d="M248.233 578.302C266.485 586.563 300.505 613.919 284.147 652.45C281.421 649.519 272.333 645.415 257.792 652.45H181.225C177.893 649.186 168.184 644.616 156.006 652.45C150.856 635.263 151.273 595.009 192.533 577.901L221.148 586.295L222.739 588.893C230.675 585.093 235.499 584.697 248.233 578.302Z" fill="#1C85E8"/>
<rect x="220.763" y="589.871" width="6.83933" height="43.4297" fill="#283BC7"/>
<rect x="220.079" y="590.212" width="6.83933" height="43.4297" fill="#4E61ED"/>
<path d="M180.324 625.33C180.186 623.353 181.753 621.673 183.735 621.673H258.184C260.147 621.673 261.708 623.323 261.599 625.283L258.726 676.92C258.625 678.732 257.126 680.15 255.312 680.15H187.326C185.529 680.15 184.039 678.759 183.914 676.967L180.324 625.33Z" fill="#C7C6C6"/>
<path d="M180.664 627.38C180.527 625.403 182.094 623.725 184.075 623.725H257.501C259.464 623.725 261.024 625.373 260.916 627.333L258.082 678.628C257.981 680.44 256.483 681.859 254.667 681.859H187.618C185.821 681.859 184.33 680.468 184.206 678.675L180.664 627.38Z" fill="white"/>
<path d="M183.884 682.367C182.639 683.533 183.464 685.621 185.17 685.621H257.036C258.641 685.621 259.509 683.739 258.466 682.518V682.518C258.109 682.1 257.586 681.859 257.036 681.859H185.17C184.692 681.859 184.232 682.041 183.884 682.367V682.367Z" fill="#9D3636"/>
<path d="M282.607 697.834C293.567 674.997 285.718 662.235 280.423 658.708C278.041 656.792 274.533 655.514 273.077 655.115C250.443 650.723 246.472 670.686 220.86 690.848C200.371 706.977 177.512 713.804 168.644 715.202C164.342 721.057 168.644 734.166 168.644 734.166C168.644 734.166 192.866 735.363 205.176 733.367C217.485 731.371 271.648 720.671 282.607 697.834Z" fill="#2336C6"/>
<path d="M282.562 697.94C293.52 675.17 286.863 664.633 281.569 661.116C279.186 659.206 286.73 681.024 271.444 696.537C262.709 704.1 259.731 706.887 229.555 718.84C205.355 728.426 176.283 726.791 167.416 728.185C167.416 730.772 168.607 734.167 168.607 734.167C168.607 734.167 192.827 735.361 205.136 733.37C217.445 731.38 271.603 720.711 282.562 697.94Z" fill="#212E8B"/>
<mask id="mask1_639_232156" style="mask-type:alpha" maskUnits="userSpaceOnUse" x="167" y="654" width="123" height="81">
<path d="M283.624 697.858C294.628 674.972 286.747 662.181 281.431 658.647C279.039 656.726 275.517 655.446 274.055 655.046C251.328 650.645 247.341 670.65 221.624 690.856C201.051 707.021 178.099 713.862 169.194 715.263C164.875 721.131 169.194 734.268 169.194 734.268C169.194 734.268 193.515 735.469 205.875 733.468C218.235 731.468 272.619 720.744 283.624 697.858Z" fill="#2336C6"/>
</mask>
<g mask="url(#mask1_639_232156)">
<path d="M167.112 647.4C164.302 622.09 174.172 614.317 180.391 612.754C183.3 611.739 168.808 629.931 178.171 649.8C183.957 659.919 185.859 663.566 210.595 685.054C230.432 702.287 258.667 710.496 266.645 714.797C265.779 717.255 263.507 720.08 263.507 720.08C263.507 720.08 240.04 713.081 228.984 707.056C217.928 701.032 169.922 672.711 167.112 647.4Z" fill="#212E8B"/>
</g>
<path d="M149.746 697.834C138.663 674.997 146.6 662.235 151.955 658.708C154.364 656.792 157.911 655.514 159.384 655.115C182.272 650.723 186.288 670.686 212.189 690.848C232.909 706.977 256.025 713.804 264.994 715.202C269.344 721.057 264.994 734.166 264.994 734.166C264.994 734.166 240.499 735.363 228.05 733.367C215.602 731.371 160.829 720.671 149.746 697.834Z" fill="#2336C6"/>
<path d="M149.796 697.94C138.714 675.17 145.446 664.633 150.8 661.116C153.209 659.206 145.58 681.024 161.04 696.537C169.874 704.1 172.885 706.887 203.402 718.84C227.876 728.426 257.276 726.791 266.243 728.185C266.243 730.772 265.038 734.167 265.038 734.167C265.038 734.167 240.544 735.361 228.097 733.37C215.649 731.38 160.879 720.711 149.796 697.94Z" fill="#212E8B"/>
<path d="M197.811 534.609C200.137 549.519 213.599 555.754 220.039 554.443C231.324 554.443 236.625 545.723 236.625 545.723C236.625 545.723 245.516 531.703 245.516 504.003L244.661 489.983L232.179 487.418L213.2 484.682L197.811 488.444L194.05 492.547V500.755C194.335 507.537 195.486 519.699 197.811 534.609Z" fill="#D7EAFF"/>
<circle cx="182.001" cy="517" r="18" fill="#2470C0"/>
<ellipse cx="188.696" cy="527.941" rx="10.259" ry="9.57506" fill="#2470C0"/>
<circle cx="188.619" cy="500.926" r="13.3367" fill="#2470C0"/>
<circle cx="182" cy="476" r="18" fill="#2470C0"/>
<circle cx="199" cy="462" r="18" fill="#2470C0"/>
<ellipse cx="226.5" cy="448" rx="27.5" ry="18" fill="#2470C0"/>
<ellipse cx="257.5" cy="469" rx="18.5" ry="18" fill="#2470C0"/>
<circle cx="228.969" cy="467.413" r="13.3367" fill="#2470C0"/>
<ellipse cx="264" cy="484.5" rx="18" ry="18.5" fill="#2470C0"/>
<path d="M288.748 520.318C287.582 539.275 279.636 552 269.803 552C259.971 552 252 537.002 252 518.5C252 499.998 264.536 485 274.368 485C284.201 485 290.346 494.349 288.748 520.318Z" fill="#2470C0"/>
<ellipse cx="258.228" cy="549.109" rx="13.1785" ry="26.2627" transform="rotate(12.2587 258.228 549.109)" fill="#2470C0"/>
<ellipse cx="253.421" cy="519.905" rx="9.40408" ry="10.43" fill="#2470C0"/>
<ellipse cx="251.7" cy="521.358" rx="9.91703" ry="12.8237" transform="rotate(0.0476093 251.7 521.358)" fill="#2470C0"/>
<ellipse cx="248.929" cy="537.832" rx="9.91703" ry="12.8237" transform="rotate(0.0476093 248.929 537.832)" fill="#2470C0"/>
<ellipse cx="252.929" cy="502.832" rx="9.91703" ry="12.8237" transform="rotate(0.0476093 252.929 502.832)" fill="#2470C0"/>
<path d="M220.714 579.951L204.176 573.719L199.272 570.139L192.603 578.625L222.218 590.857L220.714 579.951Z" fill="#4E61ED"/>
<path d="M225.212 580.798L239.125 574.551L243.299 571.019L248.599 579.167L223.656 591.393L225.212 580.798Z" fill="#4E61ED"/>
<circle cx="223.498" cy="604.233" r="1.36787" fill="white"/>
<ellipse cx="223.498" cy="616.03" rx="1.36787" ry="1.19688" fill="white"/>
<path d="M228.286 487.418C224.045 491.248 204.975 493.345 195.97 493.915V482.63C195.97 479.552 198.876 477.159 203.151 472.371C207.426 467.584 212.042 469.806 218.71 467.413C225.379 465.019 230.166 467.413 231.705 467.413C233.244 467.413 247.265 476.646 249.146 478.868C250.65 480.647 252.28 488.272 252.907 491.863C250.513 493.516 244.221 496.24 238.203 493.915C232.184 491.59 229.083 488.614 228.286 487.418Z" fill="#2470C0"/>
<path d="M204.862 504.345C206.8 501.553 211.975 497.643 217.173 504.345" stroke="#2470C0" stroke-width="0.683933"/>
<path d="M226.233 538.542C224.296 541.335 219.12 545.245 213.923 538.542" stroke="#2470C0" stroke-width="0.683933"/>
<path d="M225.208 504.345C227.146 501.553 232.321 497.643 237.519 504.345" stroke="#2470C0" stroke-width="0.683933"/>
<circle cx="211.017" cy="507.252" r="2.56475" fill="#23274B"/>
<circle cx="231.534" cy="507.252" r="2.56475" fill="#23274B"/>
<path d="M225.426 504.003C222.499 508.206 217.939 518.502 223.115 526.067C225.426 529.211 227.182 532.152 223.115 533.413" stroke="#2470C0" stroke-width="0.683933"/>
<ellipse cx="435.744" cy="312.844" rx="13.1675" ry="14.0206" fill="#81BAF2"/>
<ellipse cx="448.973" cy="312.844" rx="13.1675" ry="14.0206" fill="#81BAF2"/>
<ellipse cx="422.391" cy="312.845" rx="8.6119" ry="9.24323" fill="#81BAF2"/>
<ellipse cx="465.011" cy="312.845" rx="8.6119" ry="9.24323" fill="#81BAF2"/>
<ellipse cx="376.252" cy="353.538" rx="10.9194" ry="11.6269" fill="#81BAF2"/>
<ellipse cx="387.226" cy="353.538" rx="10.9194" ry="11.6269" fill="#81BAF2"/>
<ellipse cx="365.181" cy="353.539" rx="7.14157" ry="7.66511" fill="#81BAF2"/>
<ellipse cx="400.525" cy="353.539" rx="7.14157" ry="7.66511" fill="#81BAF2"/>
<ellipse cx="243.569" cy="333.704" rx="10.9194" ry="11.6269" fill="#81BAF2"/>
<ellipse cx="254.542" cy="333.704" rx="10.9194" ry="11.6269" fill="#81BAF2"/>
<ellipse cx="232.497" cy="333.704" rx="7.14157" ry="7.66511" fill="#81BAF2"/>
<ellipse cx="267.842" cy="333.704" rx="7.14157" ry="7.66511" fill="#81BAF2"/>
<rect y="298.823" width="113.533" height="131.315" fill="#1C85E8" fill-opacity="0.1"/>
<rect x="5.1295" y="303.952" width="103.274" height="121.056" stroke="#1C85E8" stroke-opacity="0.27" stroke-width="10.259"/>
<rect x="622.037" y="279.331" width="90.9631" height="105.326" fill="#1C85E8" fill-opacity="0.1"/>
<rect x="627.167" y="284.46" width="80.7041" height="95.0667" stroke="#1C85E8" stroke-opacity="0.27" stroke-width="10.259"/>
<rect x="560.826" y="427.402" width="71.471" height="82.7559" fill="#1C85E8" fill-opacity="0.1"/>
<rect x="565.956" y="432.531" width="61.212" height="72.4969" stroke="#1C85E8" stroke-opacity="0.27" stroke-width="10.259"/>
<rect x="50.2695" y="447.921" width="78.3103" height="90.6211" fill="#1C85E8" fill-opacity="0.1"/>
<rect x="55.399" y="453.05" width="68.0513" height="80.3621" stroke="#1C85E8" stroke-opacity="0.27" stroke-width="10.259"/>
<rect x="691.85" width="97.4604" height="112.849" transform="rotate(90 691.85 0)" fill="#1C85E8" fill-opacity="0.1"/>
<rect x="686.72" y="5.1295" width="87.2014" height="102.59" transform="rotate(90 686.72 5.1295)" stroke="#1C85E8" stroke-opacity="0.27" stroke-width="10.259"/>
<rect opacity="0.5" x="647.686" y="309.082" width="39.6681" height="45.8235" fill="#1C85E8"/>
<rect opacity="0.5" x="580.66" y="450.656" width="31.4609" height="36.2484" fill="#1C85E8"/>
<rect opacity="0.5" x="72.1543" y="473.568" width="34.5386" height="39.3261" fill="#1C85E8"/>
<rect opacity="0.5" x="660.049" y="27.3574" width="42.7458" height="49.2432" transform="rotate(90 660.049 27.3574)" fill="#1C85E8"/>
<circle opacity="0.5" cx="56.7665" cy="364.481" r="21.5439" fill="#1C85E8"/>
<path d="M644.92 617.214L624.402 663.252L623.354 664.662L616.902 665.614L615.003 663.383C608.108 638.783 611.454 614.514 613.989 605.455L621.509 607.484L615.721 600.176C618.832 588.917 625.159 576.912 627.934 572.317L635.032 577.862L631.374 565.844C637.898 555.589 650.784 542.783 656.411 537.662L659.57 546.3L661.362 535.048C670.497 527.17 683.955 522.924 689.543 521.785C688.004 523.268 680.464 540.392 676.886 548.768L667.417 552.677L674.232 554.183C672.52 556.193 664.238 574.389 660.312 583.235L649.603 585.13L657.612 588.343C656.983 589.189 650.219 604.189 646.915 611.583L638.05 613.205L645.399 616.202L644.92 617.214Z" fill="#81BAF2"/>
<path d="M676.6 534.055C659.577 547.765 624.454 592.546 620.137 661.998" stroke="#899DF0" stroke-width="0.51295"/>
<path d="M652.322 546.114C652.45 548.398 653.114 554.034 654.75 558.313" stroke="#899DF0" stroke-width="0.51295"/>
<path d="M648.605 567.663C650.892 567.665 656.558 567.322 660.923 565.932" stroke="#899DF0" stroke-width="0.51295"/>
<path d="M625.801 625.531C628.053 625.133 633.571 623.804 637.625 621.672" stroke="#899DF0" stroke-width="0.51295"/>
<path d="M638.829 566.323C639.134 568.873 640.167 575.174 641.864 579.977" stroke="#899DF0" stroke-width="0.51295"/>
<path d="M615.365 626.368C616.531 628.656 619.676 634.212 622.928 638.134" stroke="#899DF0" stroke-width="0.51295"/>
<path d="M621.891 595.184C622.845 597.568 626.806 605.534 629.689 609.734" stroke="#899DF0" stroke-width="0.51295"/>
<path d="M633.07 599.676C635.568 599.077 644.024 596.313 648.597 594.069" stroke="#899DF0" stroke-width="0.51295"/>
<path d="M650.054 637.063L628.534 667.824L627.569 668.707L622.716 668.49L621.643 666.59C620.082 647.625 625.964 630.352 629.1 624.086L634.311 626.634L631.113 620.471C634.981 612.678 641.308 604.795 643.987 601.827L648.392 606.887L647.419 597.581C653.64 591.005 664.876 583.465 669.716 580.516L670.803 587.28L673.706 579.305C681.501 574.837 691.943 573.637 696.19 573.595C694.855 574.461 686.918 585.916 683.116 591.535L675.639 593.053L680.409 595.119C678.872 596.347 670.241 608.48 666.118 614.394L658.019 614.263L663.421 617.747C662.842 618.276 655.772 628.288 652.309 633.227L645.597 633.159L650.547 636.39L650.054 637.063Z" fill="#71AFEB"/>
<path d="M684.988 580.735C670.6 588.351 638.578 616.126 625.592 666.303" stroke="#899DF0" stroke-width="0.51295"/>
<path d="M665.53 586.118C665.3 587.806 664.988 592.022 665.579 595.382" stroke="#899DF0" stroke-width="0.51295"/>
<path d="M659.762 601.35C661.434 601.676 665.625 602.227 669.014 601.828" stroke="#899DF0" stroke-width="0.51295"/>
<path d="M634.897 640.439C636.6 640.466 640.823 640.276 644.09 639.29" stroke="#899DF0" stroke-width="0.51295"/>
<path d="M652.803 598.986C652.664 600.894 652.529 605.648 653.09 609.4" stroke="#899DF0" stroke-width="0.51295"/>
<path d="M627.147 639.574C627.676 641.412 629.189 645.92 631.012 649.248" stroke="#899DF0" stroke-width="0.51295"/>
<path d="M636.332 617.694C636.693 619.572 638.462 625.958 639.976 629.437" stroke="#899DF0" stroke-width="0.51295"/>
<path d="M643.87 622.561C645.781 622.476 652.355 621.651 656.017 620.657" stroke="#899DF0" stroke-width="0.51295"/>
<path d="M593.999 631.622L616.752 667.45L617.798 668.496H623.289L624.597 666.404C627.317 645.064 621.546 625.259 618.321 618.023L612.306 620.639L616.228 613.839C612.253 604.843 605.506 595.62 602.63 592.133L597.399 597.625L598.968 587.164C592.273 579.423 579.965 570.34 574.647 566.766L573.078 574.35L570.201 565.197C561.624 559.757 549.89 557.874 545.096 557.613C546.56 558.659 554.946 571.996 558.956 578.534L567.325 580.626L561.833 582.718C563.507 584.183 572.642 598.322 577.001 605.209L586.154 605.471L579.878 609.132C580.505 609.759 587.985 621.423 591.646 627.176L599.23 627.438L593.476 630.838L593.999 631.622Z" fill="#90C4F7"/>
<path d="M557.387 566.243C573.252 575.571 608.017 608.557 620.151 665.881" stroke="#899DF0" stroke-width="0.51295"/>
<path d="M579.091 573.303C579.266 575.221 579.405 579.998 578.568 583.764" stroke="#899DF0" stroke-width="0.51295"/>
<path d="M584.837 590.798C582.933 591.081 578.171 591.492 574.364 590.87" stroke="#899DF0" stroke-width="0.51295"/>
<path d="M610.948 636.2C609.023 636.145 604.263 635.717 600.623 634.439" stroke="#899DF0" stroke-width="0.51295"/>
<path d="M592.817 588.48C592.876 590.641 592.79 596.017 591.967 600.227" stroke="#899DF0" stroke-width="0.51295"/>
<path d="M619.745 635.614C619.054 637.663 617.117 642.678 614.891 646.345" stroke="#899DF0" stroke-width="0.51295"/>
<path d="M610.475 610.439C609.972 612.543 607.653 619.665 605.767 623.518" stroke="#899DF0" stroke-width="0.51295"/>
<path d="M601.715 615.555C599.561 615.363 592.178 614.1 588.092 612.793" stroke="#899DF0" stroke-width="0.51295"/>
<path d="M610.737 712.431C601.323 704.69 598.272 683.577 597.923 673.988H651.534C651.534 695.118 643.688 708.421 639.766 712.431H610.737Z" fill="#1C85E8"/>
<rect x="593.216" y="666.665" width="63.2872" height="7.32249" rx="3.66125" fill="#4C74E3"/>
<path d="M323.772 635.204C323.209 629.289 328.35 623.937 330.99 622C316.906 622 311.596 642.246 323.245 653.513C332.528 662.492 327.587 675.989 324.476 681.682C343.208 668.161 338.209 657.207 332.751 651.401C329.993 648.467 324.336 641.119 323.772 635.204Z" fill="white"/>
<path d="M338.328 714.064C345.05 708.081 347.229 691.761 347.478 684.349H309.198C309.198 700.683 314.8 710.965 317.601 714.064H338.328Z" fill="#1C85E8"/>
<path d="M347.586 682.461C347.586 680.572 346.055 679.041 344.166 679.041H312.626C310.737 679.041 309.206 680.572 309.206 682.461V684.675H347.586V682.461Z" fill="#1C85E8"/>
<path d="M301.576 695.579C302.111 698.652 303.237 701.244 304.549 702.956C305.912 704.734 307.18 705.23 308.04 705.08C308.899 704.93 309.925 704.035 310.607 701.901C311.264 699.847 311.447 697.026 310.912 693.953C310.377 690.88 309.251 688.288 307.939 686.576C306.576 684.798 305.308 684.302 304.448 684.452C303.589 684.602 302.562 685.497 301.881 687.631C301.224 689.685 301.041 692.506 301.576 695.579Z" stroke="#1C85E8" stroke-width="3.0777"/>
<rect x="572.803" y="902.494" width="181.032" height="8.69728" rx="0.644243" fill="#1E3062"/>
<path d="M649.95 901.077C652.752 901.183 654.895 903.612 654.65 906.405L651.61 941.007C651.463 942.685 650.026 943.953 648.343 943.889V943.889C646.659 943.826 645.322 942.454 645.3 940.77L644.865 906.037C644.829 903.234 647.149 900.972 649.95 901.077V901.077Z" fill="#1E3062"/>
<path d="M589.548 901.077C592.35 901.183 594.493 903.612 594.247 906.405L591.208 941.007C591.06 942.685 589.623 943.953 587.94 943.889V943.889C586.257 943.826 584.919 942.454 584.898 940.77L584.462 906.037C584.427 903.234 586.746 900.972 589.548 901.077V901.077Z" fill="#1E3062"/>
<path d="M679.82 901.087C682.62 900.95 684.965 903.185 684.962 905.989L684.925 940.724C684.924 942.408 683.601 943.795 681.919 943.878V943.878C680.237 943.96 678.786 942.71 678.619 941.034L675.182 906.468C674.905 903.678 677.02 901.225 679.82 901.087V901.087Z" fill="#1E3062"/>
<path d="M740.3 901.087C743.101 900.95 745.446 903.185 745.443 905.989L745.406 940.724C745.404 942.408 744.082 943.795 742.4 943.878V943.878C740.718 943.96 739.266 942.71 739.099 941.034L735.663 906.468C735.385 903.678 737.5 901.225 740.3 901.087V901.087Z" fill="#1E3062"/>
<path d="M614.804 720.075C615.34 712.122 621.927 706 629.898 706C667.406 706 766.719 706 769.461 706C772.165 706 767.66 792.72 765.747 827.466C765.307 835.45 758.753 841.637 750.757 841.657C711.636 841.756 605.195 841.865 605.984 840.121C606.754 838.417 612.505 754.149 614.804 720.075Z" fill="#4A68D8"/>
<path d="M735.797 804.686H707.45L697.143 903.578H754.963C761.406 903.964 763.983 898.799 764.466 896.169L773.808 852.038L774.774 846.562L783.149 729.149C785.468 713.429 777.995 707.781 773.969 706.922C761.857 703.186 755.822 711.701 754.319 716.425L744.978 789.385C744.978 802.592 738.75 805.008 735.797 804.686Z" fill="#2C4386"/>
<path d="M562.495 804.891L602.921 805.375C605.148 803.89 609.344 799.67 609.686 793.976V792.49C609.716 792.995 609.715 793.491 609.686 793.976V804.891L608.881 832.594V835.493L706 837.748L703.101 875.597L687.478 890.415H604.21C602.921 890.415 578.118 887.355 577.796 886.71C577.474 886.066 571.353 866.417 570.87 864.806C570.387 863.195 566.683 847.895 566.522 846.928C566.361 845.962 562.495 832.272 562.495 831.628V804.891Z" fill="#2C4386"/>
<ellipse cx="649.629" cy="856.431" rx="47.5129" ry="16.7503" transform="rotate(-1.23621 649.629 856.431)" fill="#5269B7"/>
<path d="M578.569 831.628C579.599 808.049 568.261 803.979 562.463 804.892C544.746 806.664 548.289 831.628 548.289 839.358C548.289 845.542 549.792 850.525 550.544 852.243L564.556 898.307C565.072 901.914 568.637 903.353 570.355 903.622H694.855C699.235 903.622 700.867 903.085 701.136 902.816C703.198 901.914 704.465 898.79 704.84 897.34L717.725 855.142C718.885 850.761 720.034 846.552 720.463 844.995C721.365 833.657 720.624 822.447 720.141 818.26C718.08 807.05 709.511 804.355 705.485 804.409C695.563 805.568 691.472 814.663 690.667 819.065V844.674L685.996 862.713C683.033 876.886 671.018 880.752 665.38 880.913H615.452C604.499 881.396 597.252 882.523 589.038 874.47C582.466 868.028 579.32 851.814 578.569 844.513V831.628Z" fill="#1C85E8"/>
<path d="M591.69 802.315C599.936 818.163 598.347 836.943 596.522 844.351C594.751 853.049 602.408 852.458 606.025 851.599C624.708 844.77 633.244 839.197 664.49 844.996C672.06 846.4 681.562 847.895 676.569 838.553C666.583 818.098 670.449 804.086 671.898 794.745C672.865 786.369 665.832 787.336 663.04 787.98C635.724 796.742 608.602 795.604 598.455 793.939C589.597 792.651 590.266 799.576 591.69 802.315Z" fill="#1C85E8"/>
<path d="M322.455 850.74C326.232 851.443 328.682 855.128 327.87 858.883L308.96 946.277C308.478 948.505 306.311 949.946 304.07 949.529V949.529C301.829 949.112 300.325 946.988 300.677 944.736L314.473 856.39C315.066 852.594 318.677 850.037 322.455 850.74V850.74Z" fill="#1E3062"/>
<path d="M527.629 850.65C531.413 849.985 534.998 852.578 535.553 856.38L548.461 944.86C548.79 947.116 547.265 949.224 545.02 949.619V949.619C542.774 950.014 540.622 948.551 540.163 946.318L522.132 858.738C521.357 854.975 523.844 851.315 527.629 850.65V850.65Z" fill="#1E3062"/>
<rect x="279" y="843.887" width="289.638" height="15.3061" fill="#004B8D"/>
<path d="M380.241 838.921C378.466 840.798 379.797 843.887 382.38 843.887H481.483C483.914 843.887 485.297 841.107 483.831 839.168V839.168C483.274 838.432 482.405 838 481.483 838H382.38C381.57 838 380.797 838.333 380.241 838.921V838.921Z" fill="#1E75C7"/>
</svg>
